<svg width="500" height="500" viewBox="0 0 500 500" fill="none" xmlns="http://www.w3.org/2000/svg">
<rect width="500" height="500" fill="#0D0A31"/>
<path d="M246.722 257.175C241.653 276.684 232.583 316.578 232.031 354.095C231.811 369.057 233.198 385.656 235.289 401.729C236.514 411.145 237.981 420.381 239.508 429C239.554 429.257 239.6 429.514 239.645 429.771C242.086 443.452 244.666 455.534 246.651 464.252C247.529 468.111 252.646 468.091 253.525 464.232C255.509 455.516 258.087 443.442 260.525 429.771C262.102 420.933 263.62 411.427 264.882 401.729C266.973 385.656 268.36 369.057 268.14 354.095C267.588 316.578 258.518 276.684 253.449 257.175C252.494 253.5 247.677 253.5 246.722 257.175Z" fill="#528EA0"/>
<path d="M421.796 284.182C405.662 246.92 337.285 219.262 337.285 219.262C343.567 245.882 353.438 302.529 357.432 323.364C357.432 323.364 387.223 313.376 404.51 318.37C414.138 321.152 424.6 331.918 431.981 340.911C434.558 344.051 439.756 341.897 438.907 337.924C436.118 324.872 430.925 305.265 421.796 284.182Z" fill="#32ADD5"/>
<path d="M212.292 420.936C203.841 405.57 201.92 401.729 201.92 401.729H212.292C212.292 401.729 220.743 436.301 212.292 420.936Z" fill="black"/>
<path d="M288.115 420.936C296.566 405.57 298.487 401.729 298.487 401.729H288.115C288.115 401.729 279.664 436.301 288.115 420.936Z" fill="black"/>
<path d="M145.599 401.729C146.306 420.196 155.971 429.771 158.276 429.771H188.239H212.292H239.645C239.6 429.514 239.554 429.257 239.508 429C237.981 420.381 236.514 411.145 235.289 401.729H212.292C212.292 401.729 220.743 436.301 212.292 420.936C203.841 405.57 201.92 401.729 201.92 401.729H179.102C179.102 401.729 187.553 436.301 179.102 420.936C170.651 405.57 168.73 401.729 168.73 401.729H145.599Z" fill="#4B4B4B"/>
<path d="M354.572 401.729H331.677C331.677 401.729 329.756 405.57 321.305 420.936C312.854 436.301 321.305 401.729 321.305 401.729H298.487C298.487 401.729 296.566 405.57 288.115 420.936C279.664 436.301 288.115 401.729 288.115 401.729H264.882C263.62 411.427 262.102 420.933 260.525 429.771H287.879H311.932H341.895C344.2 429.771 353.865 420.196 354.572 401.729Z" fill="#4B4B4B"/>
<path d="M331.677 401.729H321.305C321.305 401.729 312.854 436.301 321.305 420.936C329.756 405.57 331.677 401.729 331.677 401.729Z" fill="black"/>
<path d="M168.73 401.729C168.73 401.729 170.651 405.57 179.102 420.936C187.553 436.301 179.102 401.729 179.102 401.729H168.73Z" fill="black"/>
<path d="M134.075 378.296C134.075 400.192 145.599 401.729 145.599 401.729H168.73H179.102H201.92H212.292H235.289C233.198 385.656 231.811 369.057 232.031 354.095C232.583 316.578 241.653 276.684 246.722 257.175C247.677 253.5 252.494 253.5 253.449 257.175C258.518 276.684 267.588 316.578 268.14 354.095C268.36 369.057 266.973 385.656 264.882 401.729H288.115H298.487H321.305H331.677H354.572C354.572 401.729 366.096 400.192 366.096 378.296C366.096 373.094 362.988 352.342 357.432 323.364C353.438 302.529 343.567 245.882 337.285 219.262C323.435 160.568 306.456 107.225 286.661 72.1052C258.59 91.7888 242.434 93.3998 213.291 71.7211C193.496 106.84 176.736 160.568 162.886 219.262C160.834 227.954 158.401 239.848 155.914 252.651C152.788 268.74 149.579 286.264 146.94 300.676L146.94 300.679C145.247 309.92 143.79 317.882 142.738 323.364C137.182 352.342 134.075 373.094 134.075 378.296Z" fill="url(#paint0_linear_106_77)"/>
<path d="M68.1901 340.911C75.5704 331.918 86.0327 321.152 95.6609 318.37C112.947 313.376 142.738 323.364 142.738 323.364C143.79 317.882 145.247 309.92 146.94 300.679L146.94 300.676C149.579 286.264 152.788 268.74 155.914 252.651C155.914 252.651 103.042 268.401 91.1338 284.182C79.2255 299.963 61.2635 337.924 61.2635 337.924C60.4146 341.897 65.6127 344.051 68.1901 340.911Z" fill="#32ADD5"/>
<path d="M162.886 219.262C162.886 219.262 94.5084 246.92 78.3745 284.182C69.2458 305.265 64.0524 324.872 61.2635 337.924C61.2635 337.924 79.2255 299.963 91.1338 284.182C103.042 268.401 155.914 252.651 155.914 252.651C158.401 239.848 160.834 227.954 162.886 219.262Z" fill="#2586A6"/>
<path d="M337.285 219.262C337.285 219.262 405.662 246.92 421.796 284.182C430.925 305.265 436.118 324.872 438.907 337.924C438.907 337.924 420.945 299.963 409.037 284.182C397.129 268.401 344.257 252.651 344.257 252.651C341.77 239.848 339.336 227.954 337.285 219.262Z" fill="#2586A6"/>
<path d="M293.765 181.585C293.765 205.663 274.246 225.182 250.168 225.182C226.09 225.182 206.571 205.663 206.571 181.585C206.571 157.508 226.09 137.989 250.168 137.989C274.246 137.989 293.765 157.508 293.765 181.585Z" fill="#8A8A8A" stroke="#8A8A8A" stroke-width="5"/>
<path d="M286.85 178.128C286.85 200.297 268.879 218.268 246.711 218.268C224.542 218.268 206.571 200.297 206.571 178.128C206.571 155.96 224.542 137.989 246.711 137.989C268.879 137.989 286.85 155.96 286.85 178.128Z" fill="#FD0404" stroke="black" stroke-width="5"/>
<circle cx="221.742" cy="152.391" r="1.53656" fill="black"/>
<circle cx="246.327" cy="142.403" r="1.53656" fill="black"/>
<circle cx="282.436" cy="177.744" r="1.53656" fill="black"/>
<circle cx="210.986" cy="177.744" r="1.53656" fill="black"/>
<circle cx="271.68" cy="152.391" r="1.53656" fill="black"/>
<circle cx="221.742" cy="203.866" r="1.53656" fill="black"/>
<path d="M273.216 203.866C273.216 204.714 272.528 205.402 271.68 205.402C270.831 205.402 270.143 204.714 270.143 203.866C270.143 203.017 270.831 202.329 271.68 202.329C272.528 202.329 273.216 203.017 273.216 203.866Z" fill="black"/>
<circle cx="246.327" cy="213.853" r="1.53656" fill="black"/>
<path d="M276.863 178.128C276.863 194.78 263.363 208.28 246.711 208.28C230.058 208.28 216.559 194.78 216.559 178.128C216.559 161.476 230.058 147.976 246.711 147.976C263.363 147.976 276.863 161.476 276.863 178.128Z" fill="white" stroke="black" stroke-width="5"/>
<path d="M213.291 71.7211C234.698 36.7832 243.253 32.5388 251.185 32.5388C259.116 32.5388 268.753 39.2395 286.661 72.1053C257.201 92.6773 241.614 94.0483 213.291 71.7211Z" fill="url(#paint1_linear_106_77)"/>
<path d="M223.278 182.738C214.443 202.713 241.129 156.232 241.333 168.909C241.537 181.585 232.498 213.469 243.253 200.408C243.253 200.408 263.613 173.134 257.467 186.195C254.1 193.349 249.337 205.765 252.089 202.329C254.361 199.492 260.924 187.732 260.924 187.732C260.924 187.732 262.845 184.274 269.759 170.061C276.674 155.848 257.851 176.592 249.784 182.738C241.717 188.884 247.863 153.159 243.253 153.159C238.644 153.159 232.113 162.762 223.278 182.738Z" fill="#D0EDFF" stroke="#D0EDFF"/>
<circle cx="344.667" cy="228.45" r="2.30484" fill="#585858"/>
<circle cx="363.874" cy="238.438" r="2.30484" fill="#585858"/>
<circle cx="384.617" cy="249.962" r="2.30484" fill="#585858"/>
<circle cx="403.44" cy="264.944" r="1.9207" fill="#585858"/>
<circle cx="417.653" cy="282.23" r="1.53656" fill="#585858"/>
<circle cx="425.72" cy="300.285" r="1.15242" fill="#585858"/>
<circle cx="433.019" cy="319.876" r="0.768281" fill="#585858"/>
<circle r="2.30484" transform="matrix(-1 0 0 1 155.669 228.45)" fill="#585858"/>
<path d="M134.158 238.438C134.158 239.711 135.189 240.743 136.462 240.743C137.735 240.743 138.767 239.711 138.767 238.438C138.767 237.165 137.735 236.133 136.462 236.133C135.189 236.133 134.158 237.165 134.158 238.438Z" fill="#585858"/>
<path d="M113.414 249.962C113.414 251.235 114.446 252.267 115.719 252.267C116.992 252.267 118.024 251.235 118.024 249.962C118.024 248.689 116.992 247.657 115.719 247.657C114.446 247.657 113.414 248.689 113.414 249.962Z" fill="#585858"/>
<circle r="1.9207" transform="matrix(-1 0 0 1 96.8959 264.944)" fill="#585858"/>
<path d="M81.1461 282.23C81.1461 283.079 81.8341 283.767 82.6827 283.767C83.5313 283.767 84.2192 283.079 84.2192 282.23C84.2192 281.382 83.5313 280.694 82.6827 280.694C81.8341 280.694 81.1461 281.382 81.1461 282.23Z" fill="#585858"/>
<circle r="1.15242" transform="matrix(-1 0 0 1 74.6159 300.285)" fill="#585858"/>
<circle r="0.768281" transform="matrix(-1 0 0 1 67.3172 319.876)" fill="#585858"/>
<circle r="2.30484" transform="matrix(-1 0 0 1 214.059 77.8675)" fill="#B4AEAE"/>
<circle r="2.30484" transform="matrix(-1 0 0 1 223.278 84.7819)" fill="#B4AEAE"/>
<path d="M232.498 90.16C232.498 91.4329 233.53 92.4648 234.802 92.4648C236.075 92.4648 237.107 91.4329 237.107 90.16C237.107 88.887 236.075 87.8551 234.802 87.8551C233.53 87.8551 232.498 88.887 232.498 90.16Z" fill="#B4AEAE"/>
<path d="M246.327 92.4648C246.327 93.7377 247.359 94.7696 248.631 94.7696C249.904 94.7696 250.936 93.7377 250.936 92.4648C250.936 91.1918 249.904 90.1599 248.631 90.1599C247.359 90.1599 246.327 91.1918 246.327 92.4648Z" fill="#B4AEAE"/>
<circle cx="283.972" cy="77.8675" r="2.30484" fill="#B4AEAE"/>
<circle cx="274.753" cy="84.7819" r="2.30484" fill="#B4AEAE"/>
<path d="M265.534 90.16C265.534 91.4329 264.502 92.4648 263.229 92.4648C261.956 92.4648 260.924 91.4329 260.924 90.16C260.924 88.887 261.956 87.8551 263.229 87.8551C264.502 87.8551 265.534 88.887 265.534 90.16Z" fill="#B4AEAE"/>
<defs>
<linearGradient id="paint0_linear_106_77" x1="250.085" y1="71.7211" x2="258.444" y2="268.548" gradientUnits="userSpaceOnUse">
<stop stop-color="#FFE8E8"/>
<stop offset="1" stop-color="#2E9ABD"/>
</linearGradient>
<linearGradient id="paint1_linear_106_77" x1="271.296" y1="49.441" x2="211.754" y2="66.3432" gradientUnits="userSpaceOnUse">
<stop offset="0.180704" stop-color="#057FB4"/>
<stop offset="1" stop-color="#F5E4E6"/>
</linearGradient>
</defs>
</svg>
