<svg width="492" height="566" viewBox="0 0 492 566" fill="none" xmlns="http://www.w3.org/2000/svg">
<path d="M241.515 292.388C234.916 317.781 223.111 369.708 222.393 418.54C222.106 438.014 223.911 459.62 226.633 480.54C228.228 492.797 230.137 504.818 232.125 516.036C232.185 516.372 232.244 516.706 232.304 517.04C235.48 534.848 238.839 550.574 241.422 561.921C242.566 566.944 249.225 566.918 250.369 561.895C252.951 550.55 256.307 534.835 259.481 517.04C261.533 505.536 263.51 493.163 265.152 480.54C267.874 459.62 269.679 438.014 269.392 418.54C268.674 369.708 256.869 317.781 250.27 292.388C249.028 287.605 242.757 287.605 241.515 292.388Z" fill="#528EA0"/>
<path d="M469.392 327.54C448.392 279.04 359.392 243.04 359.392 243.04C367.569 277.69 380.416 351.421 385.616 378.54C385.616 378.54 424.392 365.54 446.892 372.04C459.424 375.661 473.042 389.674 482.649 401.379C486.003 405.467 492.769 402.663 491.664 397.492C488.034 380.503 481.274 354.982 469.392 327.54Z" fill="#32ADD5"/>
<path d="M196.7 505.54C185.7 485.54 183.2 480.54 183.2 480.54H196.7C196.7 480.54 207.7 525.54 196.7 505.54Z" fill="black"/>
<path d="M295.393 505.54C306.393 485.54 308.893 480.54 308.893 480.54H295.393C295.393 480.54 284.393 525.54 295.393 505.54Z" fill="black"/>
<path d="M109.892 480.54C110.812 504.577 123.392 517.04 126.392 517.04H165.393H196.7H232.304C232.244 516.706 232.185 516.372 232.125 516.036C230.137 504.818 228.228 492.797 226.633 480.54H196.7C196.7 480.54 207.7 525.54 196.7 505.54C185.7 485.54 183.2 480.54 183.2 480.54H153.5C153.5 480.54 164.5 525.54 153.5 505.54C142.5 485.54 140 480.54 140 480.54H109.892Z" fill="#4B4B4B"/>
<path d="M381.892 480.54H352.093C352.093 480.54 349.593 485.54 338.593 505.54C327.593 525.54 338.593 480.54 338.593 480.54H308.893C308.893 480.54 306.393 485.54 295.393 505.54C284.393 525.54 295.393 480.54 295.393 480.54H265.152C263.51 493.163 261.533 505.536 259.481 517.04H295.085H326.393H365.393C368.392 517.04 380.973 504.577 381.892 480.54Z" fill="#4B4B4B"/>
<path d="M352.093 480.54H338.593C338.593 480.54 327.593 525.54 338.593 505.54C349.593 485.54 352.093 480.54 352.093 480.54Z" fill="black"/>
<path d="M140 480.54C140 480.54 142.5 485.54 153.5 505.54C164.5 525.54 153.5 480.54 153.5 480.54H140Z" fill="black"/>
<path d="M94.8924 450.04C94.8924 478.54 109.892 480.54 109.892 480.54H140H153.5H183.2H196.7H226.633C223.911 459.62 222.106 438.014 222.393 418.54C223.111 369.708 234.916 317.781 241.515 292.388C242.757 287.605 249.028 287.605 250.27 292.388C256.869 317.781 268.674 369.708 269.392 418.54C269.679 438.014 267.874 459.62 265.152 480.54H295.393H308.893H338.593H352.093H381.892C381.892 480.54 396.892 478.54 396.892 450.04C396.892 443.269 392.848 416.259 385.616 378.54C380.416 351.421 367.569 277.69 359.392 243.04C341.365 166.644 319.265 97.2117 293.5 51.5001C256.963 77.1203 235.933 79.2173 198 51.0001C172.235 96.7117 150.42 166.644 132.392 243.04C129.723 254.354 126.555 269.836 123.318 286.5C119.25 307.441 115.073 330.251 111.638 349.009L111.637 349.013C109.435 361.042 107.537 371.405 106.169 378.54C98.9371 416.259 94.8924 443.269 94.8924 450.04Z" fill="url(#paint0_linear_106_3)"/>
<path d="M9.13618 401.379C18.7425 389.674 32.3603 375.661 44.8924 372.04C67.3924 365.54 106.169 378.54 106.169 378.54C107.537 371.405 109.435 361.042 111.637 349.013L111.638 349.009C115.073 330.251 119.25 307.441 123.318 286.5C123.318 286.5 54.5 307 39 327.54C23.5 348.081 0.120573 397.492 0.120573 397.492C-0.984399 402.663 5.78153 405.467 9.13618 401.379Z" fill="#32ADD5"/>
<path d="M132.392 243.04C132.392 243.04 43.3924 279.04 22.3924 327.54C10.5103 354.982 3.7506 380.503 0.120573 397.492C0.120573 397.492 23.5 348.081 39 327.54C54.5 307 123.318 286.5 123.318 286.5C126.555 269.836 129.723 254.354 132.392 243.04Z" fill="#2586A6"/>
<path d="M359.392 243.04C359.392 243.04 448.392 279.04 469.392 327.54C481.274 354.982 488.034 380.503 491.664 397.492C491.664 397.492 468.285 348.081 452.785 327.54C437.285 307 368.467 286.5 368.467 286.5C365.23 269.836 362.062 254.354 359.392 243.04Z" fill="#2586A6"/>
<path d="M303.5 194C303.5 225.756 277.756 251.5 246 251.5C214.244 251.5 188.5 225.756 188.5 194C188.5 162.244 214.244 136.5 246 136.5C277.756 136.5 303.5 162.244 303.5 194Z" fill="#8A8A8A" stroke="#8A8A8A" stroke-width="5"/>
<path d="M294.5 189.5C294.5 218.771 270.771 242.5 241.5 242.5C212.229 242.5 188.5 218.771 188.5 189.5C188.5 160.229 212.229 136.5 241.5 136.5C270.771 136.5 294.5 160.229 294.5 189.5Z" fill="#FD0404" stroke="black" stroke-width="5"/>
<circle cx="209" cy="156" r="2" fill="black"/>
<circle cx="241" cy="143" r="2" fill="black"/>
<circle cx="288" cy="189" r="2" fill="black"/>
<circle cx="195" cy="189" r="2" fill="black"/>
<circle cx="274" cy="156" r="2" fill="black"/>
<circle cx="209" cy="223" r="2" fill="black"/>
<path d="M276 223C276 224.105 275.105 225 274 225C272.895 225 272 224.105 272 223C272 221.895 272.895 221 274 221C275.105 221 276 221.895 276 223Z" fill="black"/>
<circle cx="241" cy="236" r="2" fill="black"/>
<path d="M281.5 189.5C281.5 211.591 263.591 229.5 241.5 229.5C219.409 229.5 201.5 211.591 201.5 189.5C201.5 167.409 219.409 149.5 241.5 149.5C263.591 149.5 281.5 167.409 281.5 189.5Z" fill="white" stroke="black" stroke-width="5"/>
<path d="M198 51C225.864 5.5245 237 -7.7188e-06 247.323 1.09738e-10C257.646 7.71902e-06 270.19 8.72165 293.5 51.5C255.154 78.2767 234.866 80.0612 198 51Z" fill="url(#paint1_linear_106_3)"/>
<path d="M211 195.5C199.5 221.5 234.234 161 234.5 177.5C234.766 194 223 235.5 237 218.5C237 218.5 263.5 183 255.5 200C251.118 209.311 244.919 225.473 248.5 221C251.457 217.307 260 202 260 202C260 202 262.5 197.5 271.5 179C280.5 160.5 256 187.5 245.5 195.5C235 203.5 243 157 237 157C231 157 222.5 169.5 211 195.5Z" fill="#D0EDFF" stroke="#D0EDFF"/>
<circle cx="369" cy="255" r="3" fill="#585858"/>
<circle cx="394" cy="268" r="3" fill="#585858"/>
<circle cx="421" cy="283" r="3" fill="#585858"/>
<circle cx="445.5" cy="302.5" r="2.5" fill="#585858"/>
<circle cx="464" cy="325" r="2" fill="#585858"/>
<circle cx="474.5" cy="348.5" r="1.5" fill="#585858"/>
<circle cx="484" cy="374" r="1" fill="#585858"/>
<circle r="3" transform="matrix(-1 0 0 1 123 255)" fill="#585858"/>
<path d="M95 268C95 269.657 96.3431 271 98 271C99.6569 271 101 269.657 101 268C101 266.343 99.6569 265 98 265C96.3431 265 95 266.343 95 268Z" fill="#585858"/>
<path d="M68 283C68 284.657 69.3431 286 71 286C72.6569 286 74 284.657 74 283C74 281.343 72.6569 280 71 280C69.3431 280 68 281.343 68 283Z" fill="#585858"/>
<circle r="2.5" transform="matrix(-1 0 0 1 46.5 302.5)" fill="#585858"/>
<path d="M26 325C26 326.105 26.8954 327 28 327C29.1046 327 30 326.105 30 325C30 323.895 29.1046 323 28 323C26.8954 323 26 323.895 26 325Z" fill="#585858"/>
<circle r="1.5" transform="matrix(-1 0 0 1 17.5 348.5)" fill="#585858"/>
<circle r="1" transform="matrix(-1 0 0 1 8 374)" fill="#585858"/>
<circle r="3" transform="matrix(-1 0 0 1 199 59.0001)" fill="#B4AEAE"/>
<circle r="3" transform="matrix(-1 0 0 1 211 68.0001)" fill="#B4AEAE"/>
<path d="M223 75.0001C223 76.6569 224.343 78.0001 226 78.0001C227.657 78.0001 229 76.6569 229 75.0001C229 73.3432 227.657 72.0001 226 72.0001C224.343 72.0001 223 73.3432 223 75.0001Z" fill="#B4AEAE"/>
<path d="M241 78.0001C241 79.6569 242.343 81.0001 244 81.0001C245.657 81.0001 247 79.6569 247 78.0001C247 76.3432 245.657 75.0001 244 75.0001C242.343 75.0001 241 76.3432 241 78.0001Z" fill="#B4AEAE"/>
<circle cx="290" cy="59.0001" r="3" fill="#B4AEAE"/>
<circle cx="278" cy="68.0001" r="3" fill="#B4AEAE"/>
<path d="M266 75.0001C266 76.6569 264.657 78.0001 263 78.0001C261.343 78.0001 260 76.6569 260 75.0001C260 73.3432 261.343 72.0001 263 72.0001C264.657 72.0001 266 73.3432 266 75.0001Z" fill="#B4AEAE"/>
<defs>
<linearGradient id="paint0_linear_106_3" x1="245.892" y1="51.0001" x2="256.772" y2="307.192" gradientUnits="userSpaceOnUse">
<stop stop-color="#FFE8E8"/>
<stop offset="1" stop-color="#2E9ABD"/>
</linearGradient>
<linearGradient id="paint1_linear_106_3" x1="273.5" y1="22.0001" x2="196" y2="44.0001" gradientUnits="userSpaceOnUse">
<stop offset="0.180704" stop-color="#057FB4"/>
<stop offset="1" stop-color="#F5E4E6"/>
</linearGradient>
</defs>
</svg>
