<svg width="30" height="30" viewBox="0 0 30 30" fill="none" xmlns="http://www.w3.org/2000/svg">
<rect width="30" height="30" fill="white"/>
<path d="M26.4693 9.42617L26.4993 9.62217C26.0093 7.88417 24.5103 7.56617 24.4103 7.50517C21.9763 6.84417 8.11229 6.81917 5.61129 7.50517C3.89629 8.00217 3.58129 9.52217 3.52229 9.62217C2.82329 13.2732 2.81829 17.6602 3.55329 21.5692L3.52229 21.3712C4.01229 23.1092 5.51129 23.4272 5.61129 23.4882C8.07829 24.1602 21.9063 24.1622 24.4103 23.4882C26.1253 22.9922 26.4403 21.4712 26.4993 21.3712C27.1523 17.8972 27.1953 13.3682 26.4693 9.42617V9.42617ZM12.6083 19.1482V11.8552L18.8743 15.5072L12.6083 19.1482Z" fill="#E53935"/>
</svg>
